<svg xmlns="http://www.w3.org/2000/svg" aria-hidden="true" style="position:absolute;width:0;height:0;overflow:hidden"><defs><symbol id="icon-facebook" viewBox="0 0 32 32"><path fill="#fff" d="M32 16v.021a15.9 15.9 0 0 1-4.686 11.293A15.9 15.9 0 0 1 16.021 32h-.022H16h-.021a15.9 15.9 0 0 1-11.293-4.686A15.9 15.9 0 0 1 0 16.021v-.022V16v-.02A15.9 15.9 0 0 1 4.686 4.687 15.9 15.9 0 0 1 15.979.001H16h-.001.021a15.9 15.9 0 0 1 11.293 4.686 15.9 15.9 0 0 1 4.686 11.293v.022-.001z" opacity=".1" style="fill:var(--color1, #fff)"/><path fill="#f4f4fd" d="M19.198 9.588h1.753V6.535a22.54 22.54 0 0 0-2.554-.135c-2.527 0-4.258 1.59-4.258 4.511V13.6H11.35v3.413h2.789V25.6h3.419v-8.586h2.676l.425-3.413h-3.102V11.25c.001-.986.266-1.662 1.641-1.662z" style="fill:var(--color2, #f4f4fd)"/></symbol><symbol id="icon-instagram" viewBox="0 0 32 32"><path fill="#fff" d="M32 16v.021a15.9 15.9 0 0 1-4.686 11.293A15.9 15.9 0 0 1 16.021 32h-.022H16h-.021a15.9 15.9 0 0 1-11.293-4.686A15.9 15.9 0 0 1 0 16.021v-.022V16v-.02A15.9 15.9 0 0 1 4.686 4.687 15.9 15.9 0 0 1 15.979.001H16h-.001.021a15.9 15.9 0 0 1 11.293 4.686 15.9 15.9 0 0 1 4.686 11.293v.022-.001z" opacity=".1" style="fill:var(--color1, #fff)"/><path fill="#f4f4fd" d="M25.582 12.045c-.046-1.02-.21-1.722-.446-2.329a4.69 4.69 0 0 0-1.11-1.702l-.001-.001a4.737 4.737 0 0 0-1.667-1.095l-.032-.011c-.611-.236-1.309-.402-2.33-.446-1.027-.048-1.354-.06-3.96-.06s-2.934.011-3.958.056c-1.02.046-1.722.21-2.329.446a4.69 4.69 0 0 0-1.702 1.11l-.001.001a4.737 4.737 0 0 0-1.095 1.667l-.011.032c-.236.611-.402 1.309-.446 2.329-.048 1.028-.06 1.354-.06 3.961s.011 2.934.056 3.958c.046 1.02.21 1.721.447 2.329a4.77 4.77 0 0 0 1.109 1.703l.001.001c.48.488 1.062.866 1.699 1.106.611.236 1.309.401 2.33.446 1.024.045 1.35.056 3.957.056s2.933-.011 3.957-.056c1.02-.046 1.722-.21 2.33-.446a4.938 4.938 0 0 0 2.797-2.776l.012-.033c.237-.611.402-1.309.446-2.329.045-1.024.056-1.35.056-3.958s-.003-2.933-.048-3.957zm-1.73 7.839c-.041.938-.198 1.444-.33 1.782a3.202 3.202 0 0 1-1.802 1.815l-.022.008c-.338.132-.848.289-1.782.33-1.013.045-1.316.056-3.878.056s-2.869-.011-3.878-.056c-.938-.042-1.444-.198-1.782-.33a2.966 2.966 0 0 1-1.102-.715l-.001-.001a2.988 2.988 0 0 1-.71-1.082l-.007-.021c-.131-.338-.288-.848-.33-1.782-.045-1.013-.056-1.317-.056-3.878s.011-2.87.056-3.878c.041-.938.198-1.444.33-1.782.154-.416.398-.795.72-1.103.303-.31.671-.554 1.083-.709l.021-.007c.337-.131.847-.288 1.781-.33 1.013-.045 1.317-.056 3.878-.056 2.566 0 2.87.011 3.878.056.938.042 1.444.199 1.782.33a2.96 2.96 0 0 1 1.102.716 3 3 0 0 1 .717 1.103c.131.338.288.848.33 1.782.045 1.013.056 1.317.056 3.878s-.011 2.862-.056 3.874z" style="fill:var(--color2, #f4f4fd)"/><path fill="#f4f4fd" d="M16.035 11.07a4.933 4.933 0 0 0 0 9.865 4.933 4.933 0 0 0 0-9.865zm0 8.132a3.2 3.2 0 0 1 .001-6.4h.001a3.2 3.2 0 0 1-.001 6.4h-.001zm6.279-8.328v.03a1.152 1.152 0 0 1-2.304 0v-.032.002a1.153 1.153 0 0 1 2.304-.002v.002z" style="fill:var(--color2, #f4f4fd)"/></symbol><symbol id="icon-linkedin" viewBox="0 0 32 32"><path fill="#fff" d="M32 16v.021a15.9 15.9 0 0 1-4.686 11.293A15.9 15.9 0 0 1 16.021 32h-.022H16h-.021a15.9 15.9 0 0 1-11.293-4.686A15.9 15.9 0 0 1 0 16.021v-.022V16v-.02A15.9 15.9 0 0 1 4.686 4.687 15.9 15.9 0 0 1 15.979.001H16h-.001.021a15.9 15.9 0 0 1 11.293 4.686 15.9 15.9 0 0 1 4.686 11.293v.022-.001z" opacity=".1" style="fill:var(--color1, #fff)"/><path fill="#f4f4fd" d="M25.595 25.6h.005v-7.042c0-3.445-.742-6.098-4.769-6.098-1.936 0-3.235 1.062-3.766 2.07h-.056v-1.748h-3.818v12.819h3.976v-6.347c0-1.671.317-3.287 2.386-3.287 2.039 0 2.07 1.907 2.07 3.394v6.24h3.972zM6.717 12.782h3.981V25.6H6.717V12.782zM8.706 6.4A2.307 2.307 0 0 0 6.4 8.706c0 1.273 1.033 2.327 2.306 2.327s2.306-1.054 2.306-2.327A2.308 2.308 0 0 0 8.706 6.4z" style="fill:var(--color2, #f4f4fd)"/></symbol><symbol id="icon-twitter" viewBox="0 0 32 32"><path fill="#fff" d="M32 16v.021a15.9 15.9 0 0 1-4.686 11.293A15.9 15.9 0 0 1 16.021 32h-.022H16h-.021a15.9 15.9 0 0 1-11.293-4.686A15.9 15.9 0 0 1 0 16.021v-.022V16v-.02A15.9 15.9 0 0 1 4.686 4.687 15.9 15.9 0 0 1 15.979.001H16h-.001.021a15.9 15.9 0 0 1 11.293 4.686 15.9 15.9 0 0 1 4.686 11.293v.022-.001z" opacity=".1" style="fill:var(--color1, #fff)"/><path fill="#f4f4fd" d="M25.6 10.047a8.248 8.248 0 0 1-2.268.622 3.935 3.935 0 0 0 1.724-2.148l.008-.028a7.71 7.71 0 0 1-2.446.944l-.05.008a3.935 3.935 0 0 0-6.809 2.688v.003c0 .312.026.613.091.898a11.143 11.143 0 0 1-8.114-4.118 3.942 3.942 0 0 0 1.21 5.26 3.878 3.878 0 0 1-1.798-.495l.02.01v.043a3.954 3.954 0 0 0 3.128 3.863l.026.005c-.32.087-.67.13-1.032.13l-.062.001c-.242 0-.478-.025-.706-.072l.023.004c.51 1.558 1.957 2.704 3.678 2.742a7.858 7.858 0 0 1-4.872 1.679h-.008c-.323 0-.633-.014-.942-.054a10.973 10.973 0 0 0 6.003 1.766h.038-.002c7.243 0 11.203-6 11.203-11.201 0-.174-.006-.342-.014-.509a7.94 7.94 0 0 0 1.955-2.015l.018-.028z" style="fill:var(--color2, #f4f4fd)"/></symbol></defs></svg>